<?xml version="1.0" encoding="UTF-8"?>
<svg width="24" height="24" viewBox="0 0 24 24" fill="none" xmlns="http://www.w3.org/2000/svg">
    <path d="M14.7 6.3C14.5168 6.48694 14.4141 6.73826 14.4141 7C14.4141 7.26174 14.5168 7.51306 14.7 7.7L16.3 9.3C16.4869 9.48324 16.7382 9.58586 17 9.58586C17.2618 9.58586 17.5131 9.48324 17.7 9.3L21.3 5.7C21.7944 6.51114 22.0913 7.42671 22.1627 8.37357C22.2342 9.32043 22.0783 10.2704 21.7064 11.1445C21.3345 12.0186 20.7564 12.7901 20.0159 13.3912C19.2753 13.9922 18.3945 14.4069 17.4565 14.6005C16.5185 14.7941 15.5467 14.7616 14.6233 14.5057C13.6998 14.2498 12.8486 13.7777 12.1429 13.1251C11.4373 12.4725 10.8951 11.6574 10.5608 10.7522C10.2264 9.84697 10.1091 8.87813 10.2181 7.92272C10.3271 6.96731 10.6595 6.05221 11.1883 5.25C11.7172 4.44778 12.4285 3.78324 13.2648 3.30655C14.1011 2.82986 15.0373 2.55672 16 2.5C16.9627 2.44329 17.9232 2.60726 18.8 3L15.2 6.3C15.0168 6.48694 14.9141 6.73826 14.9141 7" stroke="white" stroke-width="2" stroke-linecap="round" stroke-linejoin="round"/>
    <path d="M15 15L9 21M12 21H9V18" stroke="white" stroke-width="2" stroke-linecap="round" stroke-linejoin="round"/>
</svg>
